#N canvas 495 23 569 308 12;
#X declare -lib icmc2020;
#X obj 23 18 declare -lib icmc2020;
#X obj 134 153 osc~;
#X obj 91 76 vsl 15 128 20 800 1 0 empty empty freq 0 -9 0 10 -262144
-1 -1 4400 1;
#X obj 178 218 fdn_reverb~;
#X obj 222 268 dac~;
#X msg 225 153 help;
#X obj 414 54 loadbang;
#X msg 430 100 \; pd dsp 1;
#X connect 1 0 3 0;
#X connect 2 0 1 0;
#X connect 3 0 4 0;
#X connect 3 1 4 1;
#X connect 5 0 3 0;
#X connect 6 0 7 0;
