#N canvas 429 147 611 381 12;
#X declare -lib icmc2020;
#X obj 81 41 ctlin 20;
#X obj 145 41 ctlin 21;
#X obj 212 42 ctlin 22;
#X obj 11 10 declare -lib icmc2020;
#X msg 17 135 help;
#X obj 148 221 tambourine~;
#X obj 195 271 dac~;
#X obj 414 54 loadbang;
#X msg 430 100 \; pd dsp 1;
#X obj 86 102 / 15;
#X obj 146 100 / 15;
#X obj 211 103 / 15;
#X obj 96 180 inertial_accel~ 1.7 5;
#X connect 0 0 9 0;
#X connect 1 0 10 0;
#X connect 2 0 11 0;
#X connect 4 0 12 0;
#X connect 5 0 6 0;
#X connect 5 0 6 1;
#X connect 7 0 8 0;
#X connect 9 0 12 3;
#X connect 10 0 12 4;
#X connect 11 0 12 5;
#X connect 12 0 5 0;
