#N canvas 458 151 982 587 12;
#X obj 156 28 noise~;
#X obj 137 132 *~;
#X obj 75 158 noise~;
#X obj 120 191 *~;
#X floatatom 113 47 5 0 0 0 - - -;
#X text 257 35 # of particles;
#X obj 158 106 *~ 1;
#X obj 211 463 dac~;
#N canvas 177 84 478 491 bb-res1 0;
#X obj 217 412 biquad~;
#X obj 104 149 * 6.28;
#X obj 107 178 / 44100;
#X obj 113 205 cos;
#X obj 113 234 * 2;
#X obj 146 268 *;
#X floatatom 149 296 5 0 0 0 - - -;
#X text 165 121 fb1;
#X obj 200 284 *;
#X obj 197 256 t f f;
#X floatatom 204 332 5 0 0 0 - - -;
#X obj 202 307 * -1;
#X text 214 228 fb2;
#X obj 212 367 pack f f f f f;
#X msg 266 321 1;
#X msg 307 320 -1;
#X msg 350 321 0;
#X text 259 299 ff1;
#X text 307 296 ff2;
#X text 351 295 ff3;
#X obj 222 79 t b b b b b;
#X obj 110 345 inlet~;
#X obj 219 454 outlet~;
#X msg 173 229 0.995;
#X obj 225 12 inlet;
#X obj 222 37 t b f;
#X floatatom 132 79 5 0 0 0 - - -;
#X text 88 78 2800;
#X obj 105 119 f;
#X connect 0 0 22 0;
#X connect 1 0 2 0;
#X connect 2 0 3 0;
#X connect 3 0 4 0;
#X connect 4 0 5 0;
#X connect 5 0 6 0;
#X connect 6 0 13 0;
#X connect 8 0 11 0;
#X connect 9 0 8 0;
#X connect 9 1 8 1;
#X connect 10 0 13 1;
#X connect 11 0 10 0;
#X connect 13 0 0 0;
#X connect 14 0 13 2;
#X connect 15 0 13 3;
#X connect 16 0 13 4;
#X connect 20 0 28 0;
#X connect 20 1 23 0;
#X connect 20 2 14 0;
#X connect 20 3 15 0;
#X connect 20 4 16 0;
#X connect 21 0 0 0;
#X connect 23 0 5 1;
#X connect 23 0 9 0;
#X connect 24 0 25 0;
#X connect 25 0 20 0;
#X connect 25 1 26 0;
#X connect 26 0 28 1;
#X connect 28 0 1 0;
#X restore 225 312 pd bb-res1;
#N canvas 667 100 478 491 bb-res2 0;
#X obj 211 410 biquad~;
#X obj 98 147 * 6.28;
#X obj 101 176 / 44100;
#X obj 107 203 cos;
#X obj 107 232 * 2;
#X obj 140 266 *;
#X floatatom 143 294 5 0 0 0 - - -;
#X text 159 119 fb1;
#X obj 194 282 *;
#X obj 191 254 t f f;
#X floatatom 198 330 5 0 0 0 - - -;
#X obj 196 305 * -1;
#X text 208 226 fb2;
#X obj 206 365 pack f f f f f;
#X msg 260 319 1;
#X msg 301 318 -1;
#X msg 344 319 0;
#X text 253 297 ff1;
#X text 301 294 ff2;
#X text 345 293 ff3;
#X obj 239 78 t b b b b b;
#X obj 104 343 inlet~;
#X obj 213 452 outlet~;
#X msg 167 227 0.995;
#X obj 244 27 inlet;
#X obj 241 52 t b f;
#X obj 95 116 f;
#X floatatom 115 86 5 0 0 0 - - -;
#X connect 0 0 22 0;
#X connect 1 0 2 0;
#X connect 2 0 3 0;
#X connect 3 0 4 0;
#X connect 4 0 5 0;
#X connect 5 0 6 0;
#X connect 6 0 13 0;
#X connect 8 0 11 0;
#X connect 9 0 8 0;
#X connect 9 1 8 1;
#X connect 10 0 13 1;
#X connect 11 0 10 0;
#X connect 13 0 0 0;
#X connect 14 0 13 2;
#X connect 15 0 13 3;
#X connect 16 0 13 4;
#X connect 20 0 26 0;
#X connect 20 1 23 0;
#X connect 20 2 14 0;
#X connect 20 3 15 0;
#X connect 20 4 16 0;
#X connect 21 0 0 0;
#X connect 23 0 5 1;
#X connect 23 0 9 0;
#X connect 24 0 25 0;
#X connect 25 0 20 0;
#X connect 25 1 27 0;
#X connect 26 0 1 0;
#X connect 27 0 26 1;
#X restore 255 343 pd bb-res2;
#N canvas 870 255 478 491 bb-res3 0;
#X obj 218 427 biquad~;
#X obj 105 164 * 6.28;
#X obj 108 193 / 44100;
#X obj 114 220 cos;
#X obj 114 249 * 2;
#X obj 147 283 *;
#X floatatom 150 311 5 0 0 0 - - -;
#X text 166 136 fb1;
#X obj 201 299 *;
#X obj 198 271 t f f;
#X floatatom 205 347 5 0 0 0 - - -;
#X obj 203 322 * -1;
#X text 215 243 fb2;
#X obj 213 382 pack f f f f f;
#X msg 267 336 1;
#X msg 308 335 -1;
#X msg 351 336 0;
#X text 260 314 ff1;
#X text 308 311 ff2;
#X text 352 310 ff3;
#X obj 229 85 t b b b b b;
#X obj 111 360 inlet~;
#X obj 220 469 outlet~;
#X msg 174 244 0.995;
#X obj 231 32 inlet;
#X obj 228 57 t b f;
#X obj 102 128 f;
#X floatatom 121 98 5 0 0 0 - - -;
#X connect 0 0 22 0;
#X connect 1 0 2 0;
#X connect 2 0 3 0;
#X connect 3 0 4 0;
#X connect 4 0 5 0;
#X connect 5 0 6 0;
#X connect 6 0 13 0;
#X connect 8 0 11 0;
#X connect 9 0 8 0;
#X connect 9 1 8 1;
#X connect 10 0 13 1;
#X connect 11 0 10 0;
#X connect 13 0 0 0;
#X connect 14 0 13 2;
#X connect 15 0 13 3;
#X connect 16 0 13 4;
#X connect 20 0 26 0;
#X connect 20 1 23 0;
#X connect 20 2 14 0;
#X connect 20 3 15 0;
#X connect 20 4 16 0;
#X connect 21 0 0 0;
#X connect 23 0 5 1;
#X connect 23 0 9 0;
#X connect 24 0 25 0;
#X connect 25 0 20 0;
#X connect 25 1 27 0;
#X connect 26 0 1 0;
#X connect 27 0 26 1;
#X restore 281 376 pd bb-res3;
#X obj 138 162 rpole~ 0.95;
#X text 222 276 Bamboo resonance;
#X obj 343 272 * 0.8;
#X obj 356 315 * 1.2;
#X text 232 229 2800;
#X msg 305 229 5000;
#X obj 304 108 loadbang;
#X obj 156 55 expr~ if($v1 > 0.99 \, 1 \, 0);
#X obj 37 105 rpole~ 0.9995;
#X obj 235 424 *~ 2.5;
#X floatatom 187 225 5 0 0 0 - - -;
#N canvas 524 141 596 474 xyz 0;
#X obj 48 53 ctlin 20;
#X obj 176 52 ctlin 21;
#X obj 259 54 ctlin 22;
#X obj 78 138 lop~ 1;
#X obj 264 130 lop~ 1;
#X obj 174 135 lop~ 1;
#X obj 78 245 *~;
#X obj 186 243 sqrt~;
#X obj 171 205 *~;
#X obj 248 202 *~;
#X obj 52 161 -~;
#X obj 140 164 -~;
#X obj 232 154 -~;
#X floatatom 173 20 5 0 0 0 - - -;
#X obj 184 429 outlet~;
#X obj 180 338 /~ 127;
#X obj 179 365 pow~ 1.7;
#X obj 177 397 /~ 10000;
#X text 219 18 energy fade rate (lower = longer);
#X obj 184 272 -~ 3;
#X obj 185 304 max~ 0;
#X connect 0 0 10 0;
#X connect 0 0 3 0;
#X connect 1 0 11 0;
#X connect 1 0 5 0;
#X connect 2 0 12 0;
#X connect 2 0 4 0;
#X connect 3 0 10 1;
#X connect 4 0 12 1;
#X connect 5 0 11 1;
#X connect 6 0 7 0;
#X connect 7 0 19 0;
#X connect 8 0 7 0;
#X connect 9 0 7 0;
#X connect 10 0 6 1;
#X connect 10 0 6 0;
#X connect 11 0 8 1;
#X connect 11 0 8 0;
#X connect 12 0 9 1;
#X connect 12 0 9 0;
#X connect 13 0 3 1;
#X connect 13 0 5 1;
#X connect 13 0 4 1;
#X connect 15 0 16 0;
#X connect 16 0 17 0;
#X connect 17 0 14 0;
#X connect 19 0 20 0;
#X connect 20 0 15 0;
#X restore 65 73 pd xyz;
#X msg 426 142 \; pd dsp 1;
#X connect 0 0 18 0;
#X connect 1 0 11 0;
#X connect 2 0 3 0;
#X connect 3 0 8 0;
#X connect 3 0 9 0;
#X connect 3 0 10 0;
#X connect 4 0 19 1;
#X connect 6 0 1 1;
#X connect 8 0 20 0;
#X connect 9 0 20 0;
#X connect 10 0 20 0;
#X connect 11 0 3 1;
#X connect 13 0 9 1;
#X connect 14 0 10 1;
#X connect 16 0 8 1;
#X connect 16 0 13 0;
#X connect 16 0 14 0;
#X connect 17 0 16 0;
#X connect 17 0 23 0;
#X connect 18 0 6 0;
#X connect 19 0 1 0;
#X connect 20 0 7 0;
#X connect 20 0 7 1;
#X connect 21 0 8 1;
#X connect 21 0 13 0;
#X connect 21 0 14 0;
#X connect 22 0 19 0;
